Coordinates
nRows=4
nColumns=38

# SIMM Motion File Header:
name Coordinates
datacolumns 38
datarows 4
otherdata 1
range 0.22811999999999999000 0.23111999999999999000

Units are S.I. units (second, meters, Newtons, ...)
Angles are in degrees.

endheader
time	pelvis_tilt	pelvis_list	pelvis_rotation	pelvis_tx	pelvis_ty	pelvis_tz	hip_flexion_r	hip_adduction_r	hip_rotation_r	knee_angle_r	ankle_angle_r	subtalar_angle_r	mtp_angle_r	hip_flexion_l	hip_adduction_l	hip_rotation_l	knee_angle_l	ankle_angle_l	subtalar_angle_l	mtp_angle_l	lumbar_extension	lumbar_bending	lumbar_rotation	arm_flex_r	arm_add_r	arm_rot_r	elbow_flex_r	pro_sup_r	wrist_flex_r	wrist_dev_r	arm_flex_l	arm_add_l	arm_rot_l	elbow_flex_l	pro_sup_l	wrist_flex_l	wrist_dev_l
      0.22811999999999999000	      0.84758032303916919000	      0.98145438170888422000	      5.34422364198917870000	      0.50201464397329132000	      1.01804542978309630000	     -0.32975015858623791000	     17.99905880466125300000	      1.34915648961054700000	     -1.71429733592158630000	    -16.64463029728491600000	     -0.43164218709330149000	      0.00000000000000000000	      0.00000000000000000000	     -9.03177861797243330000	      1.02664586600813190000	      0.57423082931189007000	    -35.53932740562445500000	    -14.31738190678460400000	      0.00000000000000000000	      0.00000000000000000000	    -13.93391767831333700000	     -1.02342330297761190000	    -17.60908927394135800000	    -24.62717726846059900000	    -29.27081607723432600000	      2.70588548477556090000	    117.30858170411284000000	     71.60593406659658900000	      0.00000000000000000000	      0.00000000000000000000	    -21.67061017878697600000	    -29.80259485418016400000	      2.41451809494913980000	    129.82293061669517000000	     93.27020010621078000000	      0.00000000000000000000	      0.00000000000000000000
      0.22911999999999999000	      0.87211603663296733000	      1.01026498144932100000	      5.31850287450328360000	      0.50203626528449230000	      1.01759696240018680000	     -0.32967281560135764000	     17.93106489192369700000	      1.35323128375010260000	     -1.76627960431333180000	    -16.59854387119531400000	     -0.50104329291412220000	     -0.00000000000000000028	      0.00000000000000000461	     -8.86632222658074020000	      1.06216736486608050000	      0.58775398491976893000	    -36.05885455106101000000	    -14.24459552159976100000	      0.00000000000000000009	      0.00000000000000000087	    -13.95778276557729200000	     -1.04314208641648070000	    -17.56084448600007200000	    -24.58949675860292000000	    -29.28281589329635900000	      2.61500544978728430000	    117.31702706002145000000	     71.56066294486447500000	      0.00000000000000000032	      0.00000000000000000044	    -21.77229970746136800000	    -29.78091761719750600000	      2.40930737250495450000	    129.82696110652188000000	     93.25069979113264700000	      0.00000000000000000011	      0.00000000000000000070
      0.23011999999999999000	      0.89691157211034700000	      1.03789990127846200000	      5.29257963545147710000	      0.50205695077341261000	      1.01713806798356310000	     -0.32959731559400246000	     17.86416073947895500000	      1.35835548388979470000	     -1.81786392057253910000	    -16.56096328430617600000	     -0.56534027310020307000	     -0.00000000000000000298	      0.00000000000000000731	     -8.69932010329370800000	      1.09709951895253210000	      0.60084112602579642000	    -36.58108455085349700000	    -14.16445249746416100000	      0.00000000000000000041	      0.00000000000000000167	    -13.98169297388484900000	     -1.06110265908867960000	    -17.51152917595443300000	    -24.55089105654994300000	    -29.29625093654716000000	      2.52431741296194770000	    117.32571434921181000000	     71.51351436787953700000	      0.00000000000000000071	      0.00000000000000000208	    -21.87342846776084200000	    -29.75756415384505600000	      2.40404982518764900000	    129.82984888244118000000	     93.23051689986435500000	      0.00000000000000000289	      0.00000000000000000193
      0.23111999999999999000	      0.92200802814669203000	      1.06421637605096710000	      5.26635319287657830000	      0.50207649457536740000	      1.01666904524893730000	     -0.32952353988781535000	     17.79849012121630400000	      1.36461010995686750000	     -1.86947162693155190000	    -16.53220156259521200000	     -0.63029221012479353000	     -0.00000000000000000837	      0.00000000000000000829	     -8.53082087945015740000	      1.13125522390562420000	      0.61328728652626641000	    -37.10592563617599600000	    -14.07701537468807900000	      0.00000000000000000026	      0.00000000000000000466	    -14.00571465466313500000	     -1.07715868338976570000	    -17.46104032894222900000	    -24.51123584223870100000	    -29.31117070730684300000	      2.43388607312576120000	    117.33457026184973000000	     71.46463347797262600000	      0.00000000000000000076	      0.00000000000000000619	    -21.97394701773469100000	    -29.73248036073401900000	      2.39874979386425300000	    129.83154603402880000000	     93.20966701525652800000	      0.00000000000000000501	      0.00000000000000000285
